# xmcd CD database file
#
# Track frame offsets:
#	150
#	16295
#	35718
#	47248
#	61795
#	79971
#	91702
#	105751
#	122509
#	133275
#	145928
#	161254
#
# Disc length: 2568 seconds
#
# Revision: 1
# Processed by: cddbd v1.5.2PL0 Copyright (c) Steve Scherf et al.
# Submitted via: CDex 1.70beta2
#
DISCID=930a060c
DTITLE=Amy Winehouse - Back To Black
DYEAR=1997
DGENRE=Blues
TTITLE0=Rehab - Album Version
TTITLE1=You Know I'm No Good
TTITLE2=Me and Mr Jones
TTITLE3=Just Friends
TTITLE4=Back to Black
TTITLE5=Love Is A Losing Game
TTITLE6=Tears Dry On Their Own
TTITLE7=Wake Up Alone
TTITLE8=Some Unholy War
TTITLE9=He Can Only Hold Her
TTITLE10=You Know I'm No Good
TTITLE11=Rehab - Hot Chip Vocal
EXTD=YEAR: 1997
EXTT0=
EXTT1=
EXTT2=
EXTT3=
EXTT4=
EXTT5=
EXTT6=
EXTT7=
EXTT8=
EXTT9=
EXTT10=
EXTT11=
PLAYORDER=
